<svg width="1024" height="1024" viewBox="0 0 1024 1024" fill="none" xmlns="http://www.w3.org/2000/svg">
<path d="M512 85.3334C276.358 85.3334 85.3329 276.359 85.3329 512C85.3329 747.642 276.358 938.667 512 938.667C747.641 938.667 938.666 747.642 938.666 512C938.666 276.359 747.641 85.3334 512 85.3334Z" stroke="#4A4A4A" stroke-width="48.3019" stroke-linecap="round" stroke-linejoin="round"/>
<path d="M746.667 168.654L686.673 393.635C674.491 439.314 668.4 462.158 651.156 475.406C633.911 488.654 610.272 488.654 562.996 488.654L461.006 488.654C413.731 488.654 390.089 488.654 372.848 475.406C355.602 462.158 349.509 439.314 337.328 393.635L277.334 168.654" stroke="#4A4A4A" stroke-width="48.3019" stroke-linecap="round" stroke-linejoin="round"/>
<path d="M618.667 488.654L551.386 643.92C534.61 682.632 526.222 701.987 512.001 701.987C497.78 701.987 489.392 682.632 472.615 643.92L405.334 488.654" stroke="#4A4A4A" stroke-width="48.3019" stroke-linecap="round" stroke-linejoin="round"/>
</svg>
